<?xml version="1.0" encoding="utf-8"?>
<!-- Generator: Adobe Illustrator 16.0.0, SVG Export Plug-In . SVG Version: 6.00 Build 0)  -->
<!DOCTYPE svg PUBLIC "-//W3C//DTD SVG 1.1//EN" "http://www.w3.org/Graphics/SVG/1.1/DTD/svg11.dtd">
<svg version="1.1" id="图层_1" xmlns="http://www.w3.org/2000/svg" xmlns:xlink="http://www.w3.org/1999/xlink" x="0px" y="0px"
	 width="34px" height="34px" viewBox="0 0 34 34" enable-background="new 0 0 34 34" xml:space="preserve">
<g>
	<path d="M17,0C7.611,0,0,7.611,0,17c0,9.387,7.611,17,17,17c9.381,0,17-7.607,17-17C34,7.611,26.381,0,17,0L17,0 M17,31.456
		C9.019,31.456,2.545,24.984,2.545,17C2.545,9.017,9.019,2.542,17,2.542c7.98,0,14.451,6.468,14.451,14.458
		C31.451,24.984,24.98,31.456,17,31.456L17,31.456 M17,31.456L17,31.456z"/>
	<path d="M17.178,25.361h-0.36c-0.709,0-1.287-0.576-1.287-1.286V14.45c0-0.708,0.581-1.286,1.287-1.286h0.362
		c0.708,0,1.286,0.575,1.286,1.286v9.625C18.471,24.79,17.893,25.361,17.178,25.361L17.178,25.361z"/>
	<path d="M17.183,11.507h-0.366c-0.72,0-1.308-0.582-1.308-1.308V9.834c0-0.72,0.587-1.308,1.308-1.308h0.365
		c0.72,0,1.309,0.587,1.309,1.308V10.2C18.491,10.928,17.904,11.507,17.183,11.507L17.183,11.507z"/>
</g>
</svg>
